<svg xmlns="http://www.w3.org/2000/svg" width="1920" height="1080" viewBox="0 0 1920 1080"><svg xmlns="http://www.w3.org/2000/svg" width="1920" height="1080" viewBox="0 0 1920 1080">

  <defs>  <rect width="100%" height="100%" fill="#0f1720"/>

    <linearGradient id="bg" x1="0" x2="1" y1="0" y2="1">  <!-- Taskbar backdrop -->

      <stop offset="0%" stop-color="#0a0e1a"/>  <rect x="0" y="900" width="1920" height="180" fill="#0b1020" opacity="0.9"/>

      <stop offset="100%" stop-color="#0f1418"/>

    </linearGradient>  <!-- Widget mock -->

    <style>  <g transform="translate(760,820)">

      .title { font-family: 'Segoe UI', sans-serif; font-size: 42px; font-weight: 600; fill: #ffffff; }    <rect width="400" height="120" rx="14" fill="#121417" stroke="#2a2f36"/>

      .subtitle { font-family: 'Segoe UI', sans-serif; font-size: 20px; fill: #a0a8b0; }    <!-- inline small icon -->

      .callout { font-family: 'Segoe UI', sans-serif; font-size: 16px; fill: #ffffff; }    <g transform="translate(12,12) scale(0.18)">

    </style>      <rect x="20" y="20" width="472" height="472" rx="96" ry="96" fill="#1DB954"/>

  </defs>      <g transform="translate(96,140) scale(0.36)" fill="#fff" opacity="0.98">

  <rect width="1920" height="1080" fill="url(#bg)"/>        <path d="M32 136c40-22 88-22 128 0" stroke="#fff" stroke-width="18" stroke-linecap="round" fill="none" opacity="0.96"/>

  <!-- Taskbar -->        <path d="M32 104c56-30 136-30 192 0" stroke="#fff" stroke-width="14" stroke-linecap="round" fill="none" opacity="0.9"/>

  <rect x="0" y="920" width="1920" height="160" fill="#0b0f14" opacity="0.95"/>        <path d="M32 72c24-12 96-12 144 0" stroke="#fff" stroke-width="10" stroke-linecap="round" fill="none" opacity="0.85"/>

  <!-- Widget -->      </g>

  <g transform="translate(760,840)">    </g>

    <rect width="400" height="120" rx="12" fill="#1a1d20" stroke="#2a2d30"/>    <g transform="translate(120,18)" fill="#fff">

    <!-- Icon -->      <text x="0" y="18" font-size="20" font-family="Segoe UI">Song Title - Artist</text>

    <g transform="translate(16,16)">      <text x="0" y="42" font-size="14" fill="#a9b0b8">Album Name</text>

      <rect width="88" height="88" rx="12" fill="#1DB954"/>      <rect x="0" y="62" width="260" height="18" rx="9" fill="#25282d"/>

      <g transform="translate(22,22) scale(0.32)">      <circle cx="24" cy="71" r="12" fill="#1DB954"/>

        <path d="M32 136c40-22 88-22 128 0" stroke="#fff" stroke-width="18" stroke-linecap="round" fill="none"/>    </g>

        <path d="M32 104c56-30 136-30 192 0" stroke="#fff" stroke-width="14" stroke-linecap="round" fill="none"/>  </g>

        <path d="M32 72c24-12 96-12 144 0" stroke="#fff" stroke-width="10" stroke-linecap="round" fill="none"/>

      </g>  <!-- Annotation -->

    </g>  <text x="120" y="140" fill="#e6eef8" font-family="Segoe UI" font-size="36">Widget in taskbar</text>

    <!-- Text -->  <text x="120" y="186" fill="#9fb0c6" font-family="Segoe UI" font-size="18">Quick glance controls and album art inside your taskbar</text>

    <g transform="translate(116,28)">

      <text class="song" style="font-family: 'Segoe UI'; font-size: 16px; fill: #fff;">Blinding Lights</text>  <!-- Callout box -->

      <text class="artist" style="font-family: 'Segoe UI'; font-size: 12px; fill: #888;">The Weeknd</text>  <rect x="700" y="720" width="520" height="92" rx="12" fill="#0b1220" opacity="0.8"/>

      <!-- Progress -->  <text x="720" y="760" fill="#fff" font-family="Segoe UI" font-size="18">Seamless taskbar integration — stays compact and native</text>

      <rect x="0" y="40" width="260" height="6" rx="3" fill="#333"/></svg>
      <rect x="0" y="40" width="180" height="6" rx="3" fill="#1DB954"/>
      <!-- Controls -->
      <g transform="translate(0,60)">
        <circle cx="20" cy="20" r="16" fill="#1DB954"/>
        <path d="M14 14 L14 26 L28 20 Z" fill="#fff"/>
        <circle cx="60" cy="20" r="16" fill="#444"/>
        <rect x="52" y="12" width="16" height="16" fill="none" stroke="#fff" stroke-width="2"/>
        <circle cx="100" cy="20" r="16" fill="#444"/>
        <path d="M92 14 L92 26 L106 20 Z" fill="#fff"/>
        <path d="M106 14 L106 26 L92 20 Z" fill="#fff"/>
      </g>
    </g>
  </g>
  <!-- Annotations -->
  <text x="120" y="120" class="title">Seamless Taskbar Integration</text>
  <text x="120" y="160" class="subtitle">Your music controls live right in the taskbar</text>
  <!-- Callout -->
  <rect x="720" y="740" width="440" height="80" rx="8" fill="#1a1d20" opacity="0.9"/>
  <text x="740" y="780" class="callout">Always visible, never in the way</text>
</svg>