<svg xmlns="http://www.w3.org/2000/svg" width="1920" height="1080" viewBox="0 0 1920 1080"><svg xmlns="http://www.w3.org/2000/svg" width="1920" height="1080" viewBox="0 0 1920 1080">

  <defs>  <rect width="100%" height="100%" fill="#0f1720"/>

    <linearGradient id="bg" x1="0" x2="1" y1="0" y2="1">  <g transform="translate(560,260)">

      <stop offset="0%" stop-color="#0a0e1a"/>    <rect width="800" height="560" rx="20" fill="#0e1216" stroke="#22252a"/>

      <stop offset="100%" stop-color="#0f1418"/>    <!-- overlay icon from provided source -->

    </linearGradient>    <g transform="translate(48,48) scale(0.9)">

    <style>      <rect x="12" y="12" width="232" height="232" rx="56" fill="#151515"/>

      .title { font-family: 'Segoe UI', sans-serif; font-size: 42px; font-weight: 600; fill: #ffffff; }      <path d="M58,68 L58,148 C58,158 68,164 76,159 L146,116 C154,111 154,105 146,100 L76,57 C68,52 58,58 58,68Z" fill="#7C4DFF"/>

      .subtitle { font-family: 'Segoe UI', sans-serif; font-size: 20px; fill: #a0a8b0; }      <g transform="translate(152,80)">

      .callout { font-family: 'Segoe UI', sans-serif; font-size: 16px; fill: #ffffff; }        <rect x="0" y="36" width="16" height="68" rx="4" fill="#EAEAEA" opacity="0.9"/>

    </style>        <rect x="28" y="18" width="16" height="86" rx="4" fill="#D7D7D7" opacity="0.9"/>

  </defs>        <rect x="56" y="52" width="16" height="52" rx="4" fill="#C4C4C4" opacity="0.9"/>

  <rect width="1920" height="1080" fill="url(#bg)"/>      </g>

  <!-- Floating window -->    </g>

  <g transform="translate(640,200)">    <g transform="translate(290,88)" fill="#fff">

    <rect width="640" height="480" rx="16" fill="#1a1d20" stroke="#2a2d30"/>      <text x="0" y="36" font-size="28" font-family="Segoe UI">Now Playing</text>

    <!-- Header -->      <text x="0" y="76" font-size="18" fill="#9aa9b6">Artist • Album</text>

    <rect x="0" y="0" width="640" height="80" rx="16" fill="#1DB954"/>      <g transform="translate(0,120)">

    <text x="320" y="50" text-anchor="middle" style="font-family: 'Segoe UI'; font-size: 24px; fill: #fff;">Now Playing</text>        <!-- controls -->

    <!-- Album art -->        <circle cx="80" cy="44" r="36" fill="#1DB954"/>

    <rect x="40" y="120" width="240" height="240" rx="12" fill="#333"/>        <path d="M70 34 L70 54 L90 44 Z" fill="#fff" transform="translate(-48,0)"/>

    <text x="160" y="250" text-anchor="middle" style="font-family: 'Segoe UI'; font-size: 18px; fill: #fff;">Album Art</text>        <rect x="128" y="26" width="132" height="36" rx="18" fill="#2a2f36"/>

    <!-- Info -->      </g>

    <g transform="translate(320,140)">    </g>

      <text style="font-family: 'Segoe UI'; font-size: 20px; fill: #fff;">Blinding Lights</text>  </g>

      <text y="30" style="font-family: 'Segoe UI'; font-size: 16px; fill: #aaa;">The Weeknd</text>  <text x="120" y="140" fill="#e6eef8" font-family="Segoe UI" font-size="36">Playback controls</text>

      <text y="60" style="font-family: 'Segoe UI'; font-size: 14px; fill: #888;">After Hours</text>  <text x="120" y="186" fill="#9fb0c6" font-family="Segoe UI" font-size="18">Play, pause, skip and seek with a clean UI</text>

    </g></svg>
    <!-- Progress -->
    <rect x="40" y="400" width="560" height="8" rx="4" fill="#333"/>
    <rect x="40" y="400" width="400" height="8" rx="4" fill="#1DB954"/>
    <text x="40" y="430" style="font-family: 'Segoe UI'; font-size: 12px; fill: #888;">2:34 / 3:20</text>
    <!-- Controls -->
    <g transform="translate(200,440)">
      <circle cx="40" cy="40" r="30" fill="#444"/>
      <path d="M25 25 L25 55 L55 40 Z" fill="#fff"/>
      <circle cx="120" cy="40" r="30" fill="#1DB954"/>
      <rect x="105" y="25" width="30" height="30" fill="none" stroke="#fff" stroke-width="3"/>
      <circle cx="200" cy="40" r="30" fill="#444"/>
      <path d="M185 25 L185 55 L215 40 Z" fill="#fff"/>
      <path d="M215 25 L215 55 L185 40 Z" fill="#fff"/>
      <circle cx="280" cy="40" r="30" fill="#444"/>
      <path d="M265 35 L275 25 L275 55 L265 45 Z" fill="#fff"/>
    </g>
  </g>
  <!-- Annotations -->
  <text x="120" y="120" class="title">Full Control Panel</text>
  <text x="120" y="160" class="subtitle">Detailed controls when you need them</text>
  <!-- Callout -->
  <rect x="600" y="720" width="400" height="60" rx="8" fill="#1a1d20" opacity="0.9"/>
  <text x="620" y="750" class="callout">Seek, shuffle, repeat — all at your fingertips</text>
</svg>