<svg xmlns="http://www.w3.org/2000/svg" width="1920" height="1080" viewBox="0 0 1920 1080">
  <defs>
    <linearGradient id="bg" x1="0" y1="0" x2="1" y2="1">
      <stop offset="0%" stop-color="#071018"/>
      <stop offset="100%" stop-color="#0e1720"/>
    </linearGradient>
  </defs>
  <rect width="100%" height="100%" fill="url(#bg)"/>
  <g transform="translate(220,220)">
    <text x="0" y="64" fill="#fff" font-family="Segoe UI" font-size="56">Spotify Taskbar Widget</text>
    <text x="0" y="114" fill="#9fb0c6" font-family="Segoe UI" font-size="20">A lightweight mini-player that lives in your taskbar</text>

    <g transform="translate(780,0)">
      <rect x="0" y="0" width="420" height="160" rx="16" fill="#0d1115" stroke="#1f2428"/>
      <g transform="translate(18,12) scale(0.9)">
        <rect x="12" y="12" width="232" height="232" rx="56" fill="#151515"/>
        <path d="M58,68 L58,148 C58,158 68,164 76,159 L146,116 C154,111 154,105 146,100 L76,57 C68,52 58,58 58,68Z" fill="#7C4DFF"/>
        <g transform="translate(152,80)">
          <rect x="0" y="36" width="16" height="68" rx="4" fill="#EAEAEA" opacity="0.9"/>
          <rect x="28" y="18" width="16" height="86" rx="4" fill="#D7D7D7" opacity="0.9"/>
          <rect x="56" y="52" width="16" height="52" rx="4" fill="#C4C4C4" opacity="0.9"/>
        </g>
      </g>
      <text x="172" y="48" fill="#fff" font-family="Segoe UI" font-size="20">Now Playing</text>
      <text x="172" y="80" fill="#9fb0c6" font-family="Segoe UI" font-size="14">Artist • Album</text>
    </g>

    <g transform="translate(0,220)" fill="#cfe6ff" font-family="Segoe UI">
      <text x="0" y="0" font-size="18">Features:</text>
      <text x="0" y="34" font-size="16">• Real-time album art • Playback controls • PKCE auth</text>
    </g>
  </g>
</svg>